<?xml version="1.0" encoding="utf-8"?>

<!DOCTYPE svg PUBLIC "-//W3C//DTD SVG 1.1//EN" "http://www.w3.org/Graphics/SVG/1.1/DTD/svg11.dtd">
<!-- Uploaded to: SVG Repo, www.svgrepo.com, Generator: SVG Repo Mixer Tools -->
<svg height="800px" width="800px" version="1.1" id="_x32_" xmlns="http://www.w3.org/2000/svg" xmlns:xlink="http://www.w3.org/1999/xlink" 
	 viewBox="0 0 512 512"  xml:space="preserve">
<style type="text/css">
	.st0{fill:#000000;}
</style>
<g>
	<path class="st0" d="M291.671,49.225c-89.131,0-165.797,52.966-200.497,129.1c-5.089-1.645-8.134-2.566-8.188-2.585
		c-5.542-1.672-11.39,1.455-13.062,6.986c-1.681,5.541,1.446,11.39,6.987,13.061c0,0,0.307,0.1,0.948,0.299
		c1.031,0.317,2.929,0.913,5.451,1.717c-7.376,21.865,5.125,17.807,19.497,23.628l35.866,12.374
		c-3.797,14.39-9.718,36.959-15.918,60.695c-1.672,6.426-3.354,12.907-5.034,19.352c-2.847,0.046-5.811,0.062-9.03,0.062
		c-15.492,0.028-38.297-2.729-56.871-5.522c-9.31-1.402-17.618-2.802-23.574-3.842c-2.983-0.524-5.378-0.958-7.014-1.266
		c-1.646-0.307-2.522-0.47-2.522-0.47c-5.677-1.093-11.171,2.63-12.257,8.307c-1.102,5.685,2.622,11.171,8.307,12.266
		c0.009,0,0.478,0.09,1.148,0.226l-0.281,31.401l-4.284-0.353c-5.766-0.479-10.838,3.814-11.308,9.573
		c-0.478,5.766,3.814,10.828,9.572,11.306l5.84,0.479l-0.462,51.674c-3.389,1.066-6.164,3.797-7.05,7.503
		c-1.356,5.631,2.106,11.28,7.737,12.636c14.001,3.362,26.104,4.916,36.725,4.916c12.148,0,22.406-2.06,30.948-5.838
		c12.862-5.65,21.295-15.239,26.384-24.946c5.143-9.726,7.43-19.642,9.184-27.46c0.487-2.196,1.283-5.523,2.304-9.699l42.726,3.543
		c7.059,42.221,43.666,74.426,87.883,74.426c14.02,0,36.652-2.775,49.098-8.306c36.363-16.162,91.906-55.842,159.408-34.222
		c8.641,2.767,16.595-1.039,19.009-11.072c7.004-29.023,8.749-34.248,19.939-65.657C507.516,320.396,512,295.503,512,269.554
		C512,147.874,413.351,49.225,291.671,49.225z M98.46,389.967c-2.169,10.034-5.125,20.826-11.29,28.382
		c-3.091,3.824-6.878,6.987-12.31,9.402c-5.433,2.403-12.636,4.049-22.461,4.049c-4.836,0-10.359-0.461-16.478-1.365l0.462-52.669
		l63.705,5.288C99.417,385.828,98.857,388.187,98.46,389.967z M107.788,352.348c-0.904,3.543-1.754,6.887-2.567,10.106
		l-68.649-5.694l0.262-29.512c3.689,0.597,7.656,1.23,11.877,1.862c19.109,2.848,42.274,5.741,59.982,5.758
		c1.265,0,2.377-0.018,3.598-0.018C110.725,340.906,109.198,346.835,107.788,352.348z M169.134,340.037
		c-3.444,8.488-5.532,17.653-6.202,27.207l-36.552-3.028c0.551-2.17,1.121-4.393,1.708-6.68c1.862-7.303,3.906-15.238,6.03-23.446
		c3.786-0.307,7.42-0.687,10.782-1.283c4.935-0.904,9.5-2.188,13.749-4.158c4.23-1.952,8.107-4.61,11.388-7.909
		c1.699-1.708,3.462-3.786,5.578-6.363c1.4-1.726,2.974-3.724,4.6-5.83C178.253,318.914,174.737,329.915,169.134,340.037z
		 M173.77,282.289c-4.076,5.522-8.008,10.765-11.326,14.995c-3.271,4.194-6.101,7.547-7.222,8.642
		c-1.563,1.554-3.182,2.684-5.378,3.714c-2.468,1.149-5.749,2.098-10.106,2.785c3.697-14.218,7.43-28.499,10.792-41.334
		c2.893-11.046,5.487-20.906,7.575-28.833c11.524,7.601,19.297,18.8,22.407,30.803C178.272,276.16,176.012,279.261,173.77,282.289z
		 M293.325,381.172c-16.423,0-29.728-13.314-29.728-29.737c0-16.424,13.304-29.729,29.728-29.729
		c16.425,0,29.738,13.305,29.738,29.729C323.062,367.859,309.75,381.172,293.325,381.172z M360.384,207.511l-0.57,54.721
		l-43.079-33.733l-52.224,16.37l18.782-51.404l-31.708-44.596l54.684,1.961l32.63-43.937l15.022,52.614l51.865,17.454
		L360.384,207.511z"/>
</g>
</svg>